<svg width="114" height="115" viewBox="0 0 114 115" fill="none" xmlns="http://www.w3.org/2000/svg">
<g clip-path="url(#clip0_3_2479)">
<path d="M25.6831 15.4876H88.4749C94.6282 15.4876 99.6326 20.4947 99.6326 26.648V89.4304C99.6326 95.5851 94.6269 100.594 88.4749 100.594H25.6831C19.5312 100.594 14.5241 95.5864 14.5241 89.4304V26.648C14.5241 20.4947 19.5298 15.4876 25.6831 15.4876ZM39.2002 38.0489C37.1466 38.0489 35.1771 38.8647 33.725 40.3168C32.2729 41.7689 31.4571 43.7384 31.4571 45.792C31.4571 47.8456 32.2729 49.8151 33.725 51.2672C35.1771 52.7193 37.1466 53.5351 39.2002 53.5351C41.2538 53.5351 43.2232 52.7193 44.6754 51.2672C46.1275 49.8151 46.9433 47.8456 46.9433 45.792C46.9433 43.7384 46.1275 41.7689 44.6754 40.3168C43.2232 38.8647 41.2538 38.0489 39.2002 38.0489ZM87.704 30.5036V44.5469H89.8041C89.8989 44.5473 89.9927 44.5289 90.0803 44.4929C90.1679 44.4568 90.2475 44.4038 90.3146 44.3369C90.3816 44.27 90.4348 44.1905 90.471 44.1029C90.5072 44.0154 90.5257 43.9216 90.5255 43.8269V25.7062C90.5255 25.093 90.0687 24.5934 89.4408 24.5934H80.1547C79.5281 24.5934 79.0699 25.0903 79.0699 25.7035V26.7683H64.7139C64.3131 26.7683 63.9925 27.0902 63.9925 27.4857V31.5603H76.247V30.4942C76.247 29.881 76.7053 29.384 77.3345 29.384H86.6179C87.2458 29.384 87.7054 29.8904 87.7054 30.5049L87.704 30.5036ZM84.1598 53.7689C84.2545 53.7694 84.3483 53.7512 84.4359 53.7153C84.5235 53.6794 84.6031 53.6266 84.6701 53.5597C84.7372 53.4929 84.7904 53.4135 84.8266 53.326C84.8628 53.2386 84.8814 53.1448 84.8812 53.0502V34.9295C84.8812 34.3163 84.4243 33.8167 83.7964 33.8167H74.513C73.8851 33.8167 73.4255 34.315 73.4255 34.9268V35.9916H59.0696C58.6701 35.9916 58.3482 36.3135 58.3482 36.709V53.0515C58.3482 53.1461 58.3668 53.2397 58.4031 53.327C58.4394 53.4143 58.4926 53.4935 58.5597 53.5602C58.6267 53.6269 58.7063 53.6796 58.7938 53.7155C58.8813 53.7513 58.975 53.7694 59.0696 53.7689H84.1598ZM49.8209 91.6708V68.1449H50.8763L55.6803 75.3136C56.4631 76.3797 58.0516 76.898 59.3167 76.898H70.5974C71.4971 76.8983 72.3601 76.5414 72.9967 75.9055C73.6333 75.2697 73.9913 74.4071 73.992 73.5074C73.992 71.6384 72.4703 70.1635 70.5974 70.1635H60.3374L53.2195 59.4012C51.5135 56.7988 48.1803 55.5404 45.4951 55.5404L31.5506 55.5323C30.531 55.5316 29.5212 55.7318 28.5789 56.1215C27.6367 56.5112 26.7805 57.0827 26.0592 57.8034C25.3379 58.524 24.7656 59.3798 24.3752 60.3217C23.9847 61.2636 23.7836 62.2732 23.7834 63.2928L23.7674 91.6721H49.8222L49.8209 91.6708Z" fill="#FFAD4F"/>
<path d="M69.4765 38.4604H73.7528V42.7341H78.0278V47.0104H73.7528V51.2854H69.4765V47.0104H65.2015V42.7341H69.4765V38.4604Z" fill="#FFAD4F"/>
</g>
<defs>
<clipPath id="clip0_3_2479">
<rect width="85.5" height="85.5" fill="white" transform="matrix(-1 0 0 1 100 15)"/>
</clipPath>
</defs>
</svg>
