<svg width="86" height="86" viewBox="0 0 86 86" fill="none" xmlns="http://www.w3.org/2000/svg">
<path d="M74.3169 0.487617H11.5251C5.37181 0.487617 0.367386 5.49471 0.367386 11.648V74.4304C0.367386 80.5851 5.37314 85.5935 11.5251 85.5935H74.3169C80.4689 85.5935 85.476 80.5864 85.476 74.4304V11.648C85.476 5.49471 80.4702 0.487617 74.3169 0.487617ZM60.7999 23.0489C62.8535 23.0489 64.8229 23.8647 66.275 25.3168C67.7272 26.7689 68.5429 28.7384 68.5429 30.792C68.5429 32.8456 67.7272 34.8151 66.275 36.2672C64.8229 37.7193 62.8535 38.5351 60.7999 38.5351C58.7463 38.5351 56.7768 37.7193 55.3247 36.2672C53.8725 34.8151 53.0568 32.8456 53.0568 30.792C53.0568 28.7384 53.8725 26.7689 55.3247 25.3168C56.7768 23.8647 58.7463 23.0489 60.7999 23.0489ZM12.296 15.5036V29.5469H10.1959C10.1012 29.5473 10.0073 29.5289 9.9197 29.4929C9.8321 29.4568 9.7525 29.4038 9.68545 29.3369C9.61841 29.27 9.56526 29.1905 9.52905 29.1029C9.49284 29.0154 9.47429 28.9216 9.47447 28.8269V10.7062C9.47447 10.093 9.93136 9.59337 10.5593 9.59337H19.8454C20.4719 9.59337 20.9301 10.0903 20.9301 10.7035V11.7683H35.2861C35.6869 11.7683 36.0075 12.0902 36.0075 12.4857V16.5603H23.753V15.4942C23.753 14.881 23.2947 14.384 22.6655 14.384H13.3821C12.7542 14.384 12.2946 14.8904 12.2946 15.5049L12.296 15.5036ZM15.8402 38.7689C15.7456 38.7694 15.6517 38.7512 15.5641 38.7153C15.4765 38.6794 15.3969 38.6266 15.3299 38.5597C15.2628 38.4929 15.2096 38.4135 15.1734 38.3261C15.1372 38.2386 15.1186 38.1448 15.1188 38.0502V19.9295C15.1188 19.3163 15.5757 18.8167 16.2036 18.8167H25.487C26.1149 18.8167 26.5745 19.315 26.5745 19.9268V20.9916H40.9305C41.3299 20.9916 41.6519 21.3135 41.6519 21.709V38.0515C41.6519 38.1461 41.6332 38.2397 41.5969 38.327C41.5606 38.4143 41.5074 38.4935 41.4403 38.5602C41.3733 38.6269 41.2937 38.6796 41.2062 38.7155C41.1187 38.7513 41.025 38.7694 40.9305 38.7689H15.8402ZM50.1792 76.6708V53.1449H49.1238L44.3197 60.3136C43.5369 61.3797 41.9484 61.898 40.6833 61.898H29.4027C28.5029 61.8984 27.6399 61.5414 27.0033 60.9055C26.3667 60.2697 26.0087 59.4071 26.008 58.5074C26.008 56.6384 27.5297 55.1635 29.4027 55.1635H39.6627L46.7805 44.4012C48.4865 41.7988 51.8197 40.5404 54.5049 40.5404L68.4494 40.5323C69.4691 40.5316 70.4788 40.7318 71.4211 41.1215C72.3633 41.5112 73.2195 42.0827 73.9408 42.8034C74.6621 43.524 75.2344 44.3798 75.6248 45.3217C76.0153 46.2636 76.2164 47.2732 76.2166 48.2928L76.2326 76.6721H50.1778L50.1792 76.6708Z" fill="#FFAD4F"/>
</svg>
