<svg width="114" height="115" viewBox="0 0 114 115" fill="none" xmlns="http://www.w3.org/2000/svg">
<path d="M90.25 10V24.25M90.25 24.25V38.5M90.25 24.25H104.5M90.25 24.25H76" stroke="#F7686E" stroke-width="8" stroke-linecap="round" stroke-linejoin="round"/>
<path fill-rule="evenodd" clip-rule="evenodd" d="M99.75 51.1303C94.6757 52.9276 89.1961 53.2511 83.9455 52.0633C78.695 50.8755 73.8882 48.2248 70.0817 44.4183C66.2752 40.6118 63.6245 35.805 62.4367 30.5545C61.2489 25.3039 61.5724 19.8243 63.3697 14.75H28.5C24.7207 14.75 21.0961 16.2513 18.4237 18.9237C15.7513 21.5961 14.25 25.2207 14.25 29V86C14.25 89.7793 15.7513 93.4039 18.4237 96.0763C21.0961 98.7487 24.7207 100.25 28.5 100.25H85.5C89.2793 100.25 92.9039 98.7487 95.5763 96.0763C98.2487 93.4039 99.75 89.7793 99.75 86V51.1303ZM57 33.75C58.2598 33.75 59.468 34.2504 60.3588 35.1412C61.2496 36.032 61.75 37.2402 61.75 38.5V76.5C61.75 77.7598 61.2496 78.968 60.3588 79.8588C59.468 80.7496 58.2598 81.25 57 81.25C55.7402 81.25 54.532 80.7496 53.6412 79.8588C52.7504 78.968 52.25 77.7598 52.25 76.5V38.5C52.25 37.2402 52.7504 36.032 53.6412 35.1412C54.532 34.2504 55.7402 33.75 57 33.75ZM38 48C39.2598 48 40.468 48.5004 41.3588 49.3912C42.2496 50.282 42.75 51.4902 42.75 52.75V76.5C42.75 77.7598 42.2496 78.968 41.3588 79.8588C40.468 80.7496 39.2598 81.25 38 81.25C36.7402 81.25 35.532 80.7496 34.6412 79.8588C33.7504 78.968 33.25 77.7598 33.25 76.5V52.75C33.25 51.4902 33.7504 50.282 34.6412 49.3912C35.532 48.5004 36.7402 48 38 48ZM76 62.25C77.2598 62.25 78.468 62.7504 79.3588 63.6412C80.2496 64.532 80.75 65.7402 80.75 67V76.5C80.75 77.7598 80.2496 78.968 79.3588 79.8588C78.468 80.7496 77.2598 81.25 76 81.25C74.7402 81.25 73.532 80.7496 72.6412 79.8588C71.7504 78.968 71.25 77.7598 71.25 76.5V67C71.25 65.7402 71.7504 64.532 72.6412 63.6412C73.532 62.7504 74.7402 62.25 76 62.25Z" fill="#F7686E"/>
</svg>
