<svg width="86" height="87" viewBox="0 0 86 87" fill="none" xmlns="http://www.w3.org/2000/svg">
<path fill-rule="evenodd" clip-rule="evenodd" d="M85.75 37.1303C80.6757 38.9276 75.1961 39.2511 69.9455 38.0633C64.695 36.8755 59.8882 34.2248 56.0817 30.4183C52.2752 26.6118 49.6245 21.805 48.4367 16.5545C47.2489 11.3039 47.5724 5.82431 49.3697 0.75H14.5C10.7207 0.75 7.09612 2.25134 4.42373 4.92373C1.75134 7.59612 0.25 11.2207 0.25 15V72C0.25 75.7793 1.75134 79.4039 4.42373 82.0763C7.09612 84.7487 10.7207 86.25 14.5 86.25H71.5C75.2793 86.25 78.9039 84.7487 81.5763 82.0763C84.2487 79.4039 85.75 75.7793 85.75 72V37.1303ZM43 19.75C44.2598 19.75 45.468 20.2504 46.3588 21.1412C47.2496 22.032 47.75 23.2402 47.75 24.5V62.5C47.75 63.7598 47.2496 64.968 46.3588 65.8588C45.468 66.7496 44.2598 67.25 43 67.25C41.7402 67.25 40.532 66.7496 39.6412 65.8588C38.7504 64.968 38.25 63.7598 38.25 62.5V24.5C38.25 23.2402 38.7504 22.032 39.6412 21.1412C40.532 20.2504 41.7402 19.75 43 19.75ZM24 34C25.2598 34 26.468 34.5004 27.3588 35.3912C28.2496 36.282 28.75 37.4902 28.75 38.75V62.5C28.75 63.7598 28.2496 64.968 27.3588 65.8588C26.468 66.7496 25.2598 67.25 24 67.25C22.7402 67.25 21.532 66.7496 20.6412 65.8588C19.7504 64.968 19.25 63.7598 19.25 62.5V38.75C19.25 37.4902 19.7504 36.282 20.6412 35.3912C21.532 34.5004 22.7402 34 24 34ZM62 48.25C63.2598 48.25 64.468 48.7504 65.3588 49.6412C66.2496 50.532 66.75 51.7402 66.75 53V62.5C66.75 63.7598 66.2496 64.968 65.3588 65.8588C64.468 66.7496 63.2598 67.25 62 67.25C60.7402 67.25 59.532 66.7496 58.6412 65.8588C57.7504 64.968 57.25 63.7598 57.25 62.5V53C57.25 51.7402 57.7504 50.532 58.6412 49.6412C59.532 48.7504 60.7402 48.25 62 48.25Z" fill="#F7686E"/>
</svg>
