<svg width="35" height="35" viewBox="0 0 35 35" fill="none" xmlns="http://www.w3.org/2000/svg">
<circle cx="17.5" cy="17.5" r="17.5" fill="#FFAD4F"/>
<path fill-rule="evenodd" clip-rule="evenodd" d="M25.4998 10.5C25.1476 15.2967 23.8976 18.7689 21.7498 20.9167C21.3689 21.2976 20.9519 21.6458 20.4986 21.9613L20.4986 23.8295L17.9986 26.3295L16.4731 23.6598L12.3433 19.5296L9.6665 18L12.1665 15.5L14.0446 15.5C14.3573 15.0464 14.7035 14.6297 15.0832 14.25C17.2309 12.1022 20.7032 10.8522 25.4998 10.5ZM14.9919 23.3792L16.1704 24.5577L14.4026 26.3255L13.2241 25.147L14.9919 23.3792ZM13.2241 21.6114L14.4026 22.79L11.4564 25.7362L10.2778 24.5577L13.2241 21.6114ZM11.4564 19.8437L12.6349 21.0222L10.8671 22.79L9.68859 21.6114L11.4564 19.8437ZM19.2498 15.5C18.5595 15.5 17.9998 16.0596 17.9998 16.75C17.9998 17.4404 18.5595 18 19.2498 18C19.9402 18 20.4998 17.4404 20.4998 16.75C20.4998 16.0596 19.9402 15.5 19.2498 15.5Z" fill="white"/>
</svg>
