<svg width="13" height="15" viewBox="0 0 13 15" fill="none" xmlns="http://www.w3.org/2000/svg">
<path d="M6.42968 0.25C2.89553 0.25 0.0214844 3.39052 0.0214844 7.25C0.0214844 11.1095 2.89553 14.25 6.42968 14.25C9.96249 14.25 12.8372 11.1095 12.8372 7.25C12.8372 3.39052 9.96249 0.25 6.42968 0.25ZM11.8948 7.25C11.8948 8.61573 11.4703 9.875 10.7628 10.8812C10.5625 10.7106 10.3496 10.2491 10.5498 9.77073C10.7521 9.28948 10.8048 8.17531 10.7581 7.74146C10.714 7.30833 10.5078 6.2649 9.94781 6.25469C9.38848 6.24594 9.0047 6.04396 8.67231 5.31917C7.98283 3.81125 9.96649 3.52177 9.27702 2.6876C9.08413 2.45281 8.08695 3.65156 7.94078 2.05396C7.93144 1.93948 8.03089 1.76812 8.16505 1.59021C10.3303 2.385 11.8948 4.62135 11.8948 7.25ZM5.67879 1.33865C5.54797 1.61719 5.2029 1.73021 4.99332 1.93948C4.53679 2.39083 4.34056 2.32812 4.09493 2.76125C3.84731 3.19437 3.04904 3.81781 3.04904 4.13135C3.04904 4.4449 3.45218 4.81385 3.65375 4.7424C3.85532 4.66948 4.38728 4.67385 4.69964 4.79344C5.01268 4.91448 7.31204 5.03552 6.57918 7.15885C6.34691 7.83406 5.32905 7.72031 5.05806 8.83813C5.01735 9.00219 4.87652 9.70292 4.86784 9.93188C4.85115 10.2863 5.09744 11.6221 4.78441 11.6221C4.47004 11.6221 3.62438 10.427 3.62438 10.2104C3.62438 9.99385 3.40546 9.23479 3.40546 8.58437C3.40546 7.93469 2.39227 7.9449 2.39227 7.08083C2.39227 6.30208 2.94158 5.91417 2.8181 5.5401C2.69729 5.16823 1.73216 5.15583 1.32969 5.1099C2.03251 3.11854 3.68579 1.64052 5.67879 1.33865ZM4.71032 12.9156C5.03871 12.726 5.07208 12.481 5.36976 12.4686C5.71016 12.4519 5.98716 12.3235 6.37094 12.2309C6.71134 12.15 7.32072 11.7723 7.85668 11.7242C8.30922 11.6841 9.2016 11.7497 9.44188 12.2266C8.57753 12.8544 7.54098 13.2204 6.42901 13.2204C5.82897 13.2204 5.25096 13.1118 4.71032 12.9156Z" fill="#616161"/>
<path d="M6.42968 0.25C2.89553 0.25 0.0214844 3.39052 0.0214844 7.25C0.0214844 11.1095 2.89553 14.25 6.42968 14.25C9.96249 14.25 12.8372 11.1095 12.8372 7.25C12.8372 3.39052 9.96249 0.25 6.42968 0.25ZM11.8948 7.25C11.8948 8.61573 11.4703 9.875 10.7628 10.8812C10.5625 10.7106 10.3496 10.2491 10.5498 9.77073C10.7521 9.28948 10.8048 8.17531 10.7581 7.74146C10.714 7.30833 10.5078 6.2649 9.94781 6.25469C9.38848 6.24594 9.0047 6.04396 8.67231 5.31917C7.98283 3.81125 9.96649 3.52177 9.27702 2.6876C9.08413 2.45281 8.08695 3.65156 7.94078 2.05396C7.93144 1.93948 8.03089 1.76812 8.16505 1.59021C10.3303 2.385 11.8948 4.62135 11.8948 7.25ZM5.67879 1.33865C5.54797 1.61719 5.2029 1.73021 4.99332 1.93948C4.53679 2.39083 4.34056 2.32812 4.09493 2.76125C3.84731 3.19437 3.04904 3.81781 3.04904 4.13135C3.04904 4.4449 3.45218 4.81385 3.65375 4.7424C3.85532 4.66948 4.38728 4.67385 4.69964 4.79344C5.01268 4.91448 7.31204 5.03552 6.57918 7.15885C6.34691 7.83406 5.32905 7.72031 5.05806 8.83813C5.01735 9.00219 4.87652 9.70292 4.86784 9.93188C4.85115 10.2863 5.09744 11.6221 4.78441 11.6221C4.47004 11.6221 3.62438 10.427 3.62438 10.2104C3.62438 9.99385 3.40546 9.23479 3.40546 8.58437C3.40546 7.93469 2.39227 7.9449 2.39227 7.08083C2.39227 6.30208 2.94158 5.91417 2.8181 5.5401C2.69729 5.16823 1.73216 5.15583 1.32969 5.1099C2.03251 3.11854 3.68579 1.64052 5.67879 1.33865ZM4.71032 12.9156C5.03871 12.726 5.07208 12.481 5.36976 12.4686C5.71016 12.4519 5.98716 12.3235 6.37094 12.2309C6.71134 12.15 7.32072 11.7723 7.85668 11.7242C8.30922 11.6841 9.2016 11.7497 9.44188 12.2266C8.57753 12.8544 7.54098 13.2204 6.42901 13.2204C5.82897 13.2204 5.25096 13.1118 4.71032 12.9156Z" fill="black" fill-opacity="0.2"/>
</svg>
