<svg width="16" height="15" viewBox="0 0 16 15" fill="none" xmlns="http://www.w3.org/2000/svg">
<path d="M8 1.07496e-05C6.85192 -0.000737048 5.719 0.262098 4.68852 0.768262C3.65804 1.27443 2.75753 2.01041 2.05635 2.9195C1.35518 3.82859 0.872075 4.88652 0.644258 6.01176C0.416442 7.13701 0.449998 8.29954 0.74234 9.40978C1.03468 10.52 1.57801 11.5483 2.33045 12.4154C3.08289 13.2826 4.02436 13.9654 5.08232 14.4113C6.14027 14.8572 7.28647 15.0542 8.4326 14.9872C9.57872 14.9203 10.6942 14.5911 11.693 14.025L14.513 14.9648C14.5896 14.989 14.6696 15.0009 14.75 15C14.8688 14.9999 14.9858 14.9716 15.0915 14.9174C15.1972 14.8633 15.2886 14.7848 15.358 14.6884C15.4274 14.592 15.4729 14.4805 15.4909 14.3631C15.5088 14.2457 15.4985 14.1257 15.461 14.013L14.525 11.193C15.1733 10.0526 15.5107 8.76199 15.5036 7.45024C15.4964 6.13848 15.145 4.8516 14.4843 3.71834C13.8237 2.58507 12.877 1.64515 11.7391 0.992608C10.6011 0.340069 9.31177 -0.00221122 8 1.07496e-05ZM12.9898 11.3408L13.5643 13.0658L11.8393 12.4913C11.734 12.4554 11.6221 12.4435 11.5116 12.4565C11.4012 12.4694 11.2951 12.507 11.201 12.5663C9.95012 13.3579 8.45123 13.6605 6.99121 13.4161C5.53118 13.1716 4.21256 12.3974 3.28771 11.2415C2.36286 10.0856 1.89673 8.62929 1.97854 7.15121C2.06035 5.67313 2.68434 4.27712 3.7311 3.23036C4.77786 2.1836 6.17387 1.55961 7.65195 1.4778C9.13003 1.39599 10.5864 1.86212 11.7423 2.78697C12.8981 3.71182 13.6724 5.03044 13.9168 6.49047C14.1612 7.95049 13.8586 9.44938 13.067 10.7003C13.0073 10.7945 12.9694 10.901 12.956 11.0118C12.9426 11.1226 12.9542 11.235 12.9898 11.3408ZM11.75 5.62501C11.75 5.82392 11.671 6.01469 11.5303 6.15534C11.3897 6.29599 11.1989 6.37501 11 6.37501H5C4.80109 6.37501 4.61032 6.29599 4.46967 6.15534C4.32902 6.01469 4.25 5.82392 4.25 5.62501C4.25 5.4261 4.32902 5.23533 4.46967 5.09468C4.61032 4.95403 4.80109 4.87501 5 4.87501H11C11.1989 4.87501 11.3897 4.95403 11.5303 5.09468C11.671 5.23533 11.75 5.4261 11.75 5.62501ZM8.75 9.37501C8.75 9.57392 8.67098 9.76469 8.53033 9.90534C8.38968 10.046 8.19891 10.125 8 10.125H5C4.80109 10.125 4.61032 10.046 4.46967 9.90534C4.32902 9.76469 4.25 9.57392 4.25 9.37501C4.25 9.1761 4.32902 8.98533 4.46967 8.84468C4.61032 8.70403 4.80109 8.62501 5 8.62501H8C8.19891 8.62501 8.38968 8.70403 8.53033 8.84468C8.67098 8.98533 8.75 9.1761 8.75 9.37501Z" fill="#252525"/>
</svg>
