<svg width="18" height="19" viewBox="0 0 18 19" fill="none" xmlns="http://www.w3.org/2000/svg">
<path d="M8.99963 15.0276C7.65713 15.0276 6.31459 14.5176 5.28709 13.4901C3.23959 11.4426 3.23959 8.11257 5.28709 6.06504C7.33459 4.01754 10.6646 4.01754 12.7121 6.06504C14.7596 8.11257 14.7596 11.4426 12.7121 13.4901C11.6846 14.5176 10.3421 15.0276 8.99963 15.0276ZM8.99963 5.65255C7.94213 5.65255 6.88459 6.05754 6.08209 6.86004C4.47709 8.47257 4.47709 11.0826 6.08209 12.6951C7.69463 14.3076 10.3121 14.3001 11.9171 12.6951C13.5221 11.0826 13.5221 8.47257 11.9171 6.86004C11.1146 6.05754 10.0571 5.65255 8.99963 5.65255Z" fill="#252525"/>
<path d="M6.1868 17.2924C6.1193 17.2924 6.0443 17.2774 5.9768 17.2549C4.2893 16.5799 2.92429 15.3874 2.00929 13.8124C1.12429 12.2749 0.771791 10.5349 1.00429 8.76493C1.04179 8.45743 1.32679 8.23993 1.63429 8.27743C1.94179 8.31493 2.15928 8.59993 2.12178 8.90743C1.92678 10.4224 2.22681 11.9224 2.98431 13.2424C3.76431 14.5924 4.94179 15.6199 6.38929 16.1974C6.67429 16.3174 6.8168 16.6399 6.7043 16.9324C6.6218 17.1574 6.4043 17.2924 6.1868 17.2924Z" fill="#252525"/>
<path d="M4.38721 4.4224C4.22221 4.4224 4.05721 4.34741 3.94471 4.20491C3.74971 3.95741 3.79472 3.60492 4.04222 3.41742C5.47472 2.29992 7.18471 1.7074 8.9997 1.7074C10.7697 1.7074 12.4572 2.27741 13.8747 3.35741C14.1222 3.54491 14.1672 3.8974 13.9797 4.1449C13.7922 4.3924 13.4397 4.43741 13.1922 4.24991C11.9772 3.31991 10.5297 2.8324 8.9997 2.8324C7.43971 2.8324 5.9622 3.34242 4.7322 4.30242C4.6272 4.38492 4.50721 4.4224 4.38721 4.4224Z" fill="#252525"/>
<path d="M11.813 17.2926C11.588 17.2926 11.378 17.1576 11.288 16.9401C11.1755 16.6551 11.3105 16.3251 11.603 16.2051C13.0505 15.6201 14.228 14.6001 15.008 13.2501C15.773 11.9301 16.073 10.4301 15.8705 8.91509C15.833 8.60759 16.0505 8.32259 16.358 8.28509C16.658 8.24759 16.9505 8.46509 16.988 8.77259C17.213 10.5351 16.868 12.2826 15.983 13.8201C15.0755 15.3951 13.703 16.5801 12.0155 17.2626C11.9555 17.2776 11.888 17.2926 11.813 17.2926Z" fill="#252525"/>
</svg>
