<svg width="19" height="18" viewBox="0 0 19 18" fill="none" xmlns="http://www.w3.org/2000/svg">
<path d="M3.62779 11.4749L7.02529 14.8724C8.4203 16.2674 10.6853 16.2674 12.0878 14.8724L15.3803 11.5799C16.7753 10.1849 16.7753 7.91985 15.3803 6.51735L11.9753 3.12735C11.2628 2.41485 10.2803 2.03235 9.2753 2.08485L5.52529 2.26485C4.02529 2.33235 2.83279 3.52485 2.75779 5.01735L2.57779 8.76735C2.53279 9.77985 2.91529 10.7624 3.62779 11.4749Z" stroke="#646464" stroke-linecap="round" stroke-linejoin="round"/>
<path d="M7.625 9C8.66052 9 9.5 8.16052 9.5 7.125C9.5 6.08947 8.66052 5.25 7.625 5.25C6.58947 5.25 5.75 6.08947 5.75 7.125C5.75 8.16052 6.58947 9 7.625 9Z" stroke="#646464" stroke-linecap="round"/>
</svg>
